<svg xmlns="http://www.w3.org/2000/svg" viewBox="0 0 320 140" role="img" aria-label="공원에서 차를 마시는 친구들">
  <!-- 본 프로젝트용 직접 창작 placeholder. license: asset_cafe_friends (docs/asset-licenses.md) -->
  <defs>
    <linearGradient id="day" x1="0" y1="0" x2="0" y2="1">
      <stop offset="0" stop-color="#7dd3fc"/>
      <stop offset="1" stop-color="#bae6fd"/>
    </linearGradient>
  </defs>
  <rect width="320" height="140" fill="url(#day)"/>
  <!-- 해 -->
  <circle cx="272" cy="30" r="16" fill="#fde047"/>
  <!-- 나무 -->
  <rect x="48" y="66" width="10" height="36" rx="3" fill="#92633b"/>
  <circle cx="53" cy="52" r="26" fill="#4ade80"/>
  <circle cx="36" cy="62" r="16" fill="#22c55e"/>
  <circle cx="70" cy="62" r="16" fill="#22c55e"/>
  <!-- 잔디 -->
  <rect x="0" y="100" width="320" height="40" fill="#86efac"/>
  <!-- 테이블 + 찻잔 -->
  <rect x="150" y="88" width="64" height="6" rx="3" fill="#a16207"/>
  <rect x="176" y="94" width="8" height="18" fill="#854d0e"/>
  <rect x="160" y="78" width="14" height="10" rx="2" fill="#f8fafc"/>
  <rect x="190" y="78" width="14" height="10" rx="2" fill="#f8fafc"/>
  <!-- 두 사람 -->
  <g>
    <circle cx="140" cy="74" r="8" fill="#fde68a"/>
    <rect x="133" y="82" width="14" height="20" rx="4" fill="#f472b6"/>
    <circle cx="226" cy="74" r="8" fill="#fcd9b6"/>
    <rect x="219" y="82" width="14" height="20" rx="4" fill="#60a5fa"/>
  </g>
</svg>
