<svg xmlns="http://www.w3.org/2000/svg" viewBox="0 0 320 140" role="img" aria-label="비 오는 아침의 길">
  <!-- 본 프로젝트용 직접 창작 placeholder. license: asset_rain_morning (docs/asset-licenses.md) -->
  <defs>
    <linearGradient id="sky" x1="0" y1="0" x2="0" y2="1">
      <stop offset="0" stop-color="#475569"/>
      <stop offset="1" stop-color="#64748b"/>
    </linearGradient>
  </defs>
  <rect width="320" height="140" fill="url(#sky)"/>
  <!-- 구름 -->
  <ellipse cx="80" cy="34" rx="44" ry="16" fill="#94a3b8"/>
  <ellipse cx="120" cy="28" rx="36" ry="14" fill="#a8b6c8"/>
  <ellipse cx="240" cy="38" rx="50" ry="17" fill="#94a3b8"/>
  <!-- 빗줄기 -->
  <g stroke="#cbd5e1" stroke-width="2" stroke-linecap="round" opacity="0.8">
    <line x1="60"  y1="56" x2="54"  y2="74"/>
    <line x1="100" y1="50" x2="94"  y2="68"/>
    <line x1="140" y1="58" x2="134" y2="76"/>
    <line x1="180" y1="52" x2="174" y2="70"/>
    <line x1="220" y1="58" x2="214" y2="76"/>
    <line x1="260" y1="54" x2="254" y2="72"/>
  </g>
  <!-- 길 -->
  <rect x="0" y="108" width="320" height="32" fill="#334155"/>
  <g stroke="#facc15" stroke-width="3" stroke-dasharray="14 12">
    <line x1="0" y1="124" x2="320" y2="124"/>
  </g>
  <!-- 우산을 쓴 사람 -->
  <g>
    <path d="M150 78 q18 -22 36 0 z" fill="#f87171"/>
    <line x1="168" y1="78" x2="168" y2="104" stroke="#1e293b" stroke-width="3"/>
    <circle cx="168" cy="92" r="6" fill="#fde68a"/>
    <rect x="163" y="98" width="10" height="14" rx="3" fill="#0ea5e9"/>
  </g>
</svg>
