<svg xmlns="http://www.w3.org/2000/svg" viewBox="0 0 320 140" role="img" aria-label="역과 지도">
  <!-- 본 프로젝트용 직접 창작 placeholder. license: asset_station_map (docs/asset-licenses.md) -->
  <rect width="320" height="140" fill="#e2e8f0"/>
  <!-- 역 건물 -->
  <rect x="28" y="48" width="110" height="62" rx="6" fill="#94a3b8"/>
  <rect x="40" y="64" width="20" height="20" rx="3" fill="#e0f2fe"/>
  <rect x="73" y="64" width="20" height="20" rx="3" fill="#e0f2fe"/>
  <rect x="106" y="64" width="20" height="20" rx="3" fill="#e0f2fe"/>
  <rect x="70" y="90" width="26" height="20" rx="3" fill="#475569"/>
  <path d="M22 48 L83 22 L144 48 z" fill="#64748b"/>
  <!-- 駅 표지판 -->
  <rect x="60" y="34" width="46" height="16" rx="4" fill="#0ea5e9"/>
  <text x="83" y="46" font-size="11" text-anchor="middle" fill="#ffffff" font-family="sans-serif">EKI</text>
  <!-- 지도 -->
  <g>
    <rect x="186" y="40" width="106" height="76" rx="6" fill="#fef9c3" stroke="#eab308" stroke-width="2"/>
    <path d="M196 100 L226 70 L250 86 L282 52" fill="none" stroke="#ef4444" stroke-width="3" stroke-dasharray="6 4"/>
    <circle cx="196" cy="100" r="5" fill="#22c55e"/>
    <circle cx="282" cy="52" r="5" fill="#ef4444"/>
  </g>
  <!-- 길 -->
  <rect x="0" y="120" width="320" height="20" fill="#cbd5e1"/>
</svg>
